<svg xmlns="http://www.w3.org/2000/svg" version="1.1" xmlns:xlink="http://www.w3.org/1999/xlink" width="512" height="512" x="0" y="0" viewBox="0 0 512 512" style="enable-background:new 0 0 512 512" xml:space="preserve" class=""><g><circle cx="256" cy="256" r="256" style="" fill="#ff314f" data-original="#ff314f" class=""></circle><path d="M275.166 511.286C406.599 501.558 510.4 392.597 511.962 259.05L389.341 136.43l-6.244 9.161-31.384-31.384-13.54 18.822 31.808 31.808-57.923 84.98L176.45 114.209l-13.972 58.039 41.681 40.443-76.207 151.767 147.214 146.828z" style="" fill="#a30f44" data-original="#a30f44"></path><path d="M371.228 369.778H140.772c-10.004 0-18.115-8.109-18.115-18.115V169.765H389.34v181.898c.001 10.006-8.109 18.115-18.112 18.115z" style="" fill="#ffffff" data-original="#ffffff"></path><path d="M255.426 169.765v200.013h115.802c10.004 0 18.115-8.111 18.115-18.115V169.765H255.426z" style="" fill="#d0d1d3" data-original="#d0d1d3"></path><path d="M122.656 136.43h266.688v66.67H122.656z" style="" fill="#fee187" data-original="#fee187"></path><path d="M255.431 136.43h133.913v66.67H255.431z" style="" fill="#ffc61b" data-original="#ffc61b"></path><path d="M160.289 114.209h16.163v44.447h-16.163zM335.558 114.209h16.163v44.447h-16.163z" style="" fill="#386895" data-original="#386895"></path><path d="M144.584 222.815h28.444v28.444h-28.444zM193.181 222.815h28.444v28.444h-28.444zM241.778 222.815h13.648v28.444h-13.648zM255.431 222.815h14.796v28.444h-14.796z" style="" fill="#ff7f4f" data-original="#ff7f4f"></path><path d="M290.375 222.815h28.444v28.444h-28.444zM338.954 222.815h28.444v28.444h-28.444z" style="" fill="#d35933" data-original="#d35933"></path><path d="M144.584 267.843h28.444v28.444h-28.444zM193.181 267.843h28.444v28.444h-28.444zM241.778 267.843h13.648v28.444h-13.648zM255.431 267.843h14.796v28.444h-14.796z" style="" fill="#ff7f4f" data-original="#ff7f4f"></path><path d="M290.375 267.843h28.444v28.444h-28.444zM338.954 267.843h28.444v28.444h-28.444z" style="" fill="#d35933" data-original="#d35933"></path><path d="M144.584 312.889h28.444v28.444h-28.444zM193.181 312.889h28.444v28.444h-28.444zM241.778 312.889h28.444v28.444h-28.444z" style="" fill="#ff7f4f" data-original="#ff7f4f"></path><path d="M255.431 222.815h14.796v28.444h-14.796zM255.431 267.843h14.796v28.444h-14.796zM255.431 312.889h14.796v28.444h-14.796zM290.375 312.889h28.444v28.444h-28.444zM338.954 312.889h28.444v28.444h-28.444z" style="" fill="#d35933" data-original="#d35933"></path></g></svg>